HIERARCHY
ROOT Hips
{
 OFFSET 0.000000 0.000000 0.000000
 CHANNELS 6 Xposition Yposition Zposition Yrotation Xrotation Zrotation
 JOINT Chest
 {
  OFFSET 0.000000 9.857222 0.000240
  CHANNELS 3 Yrotation Xrotation Zrotation
  JOINT Chest2
  {
   OFFSET 0.000000 10.876940 -0.000436
   CHANNELS 3 Yrotation Xrotation Zrotation
   JOINT Chest3
   {
    OFFSET 0.000000 9.827798 0.000000
    CHANNELS 3 Yrotation Xrotation Zrotation
    JOINT Chest4
    {
     OFFSET 0.000000 9.827798 0.000000
     CHANNELS 3 Yrotation Xrotation Zrotation
     JOINT Neck
     {
      OFFSET 0.000000 13.831992 0.000000
      CHANNELS 3 Yrotation Xrotation Zrotation
      JOINT Head
      {
       OFFSET 0.000000 9.147643 -0.001036
       CHANNELS 3 Yrotation Xrotation Zrotation
       End Site
       {
        OFFSET 0.000000 17.515799 -0.000541
       }
      }
     }
     JOINT RightCollar
     {
      OFFSET -3.001579 7.717577 0.000000
      CHANNELS 3 Yrotation Xrotation Zrotation
      JOINT RightShoulder
      {
       OFFSET -14.002642 0.000000 0.000000
       CHANNELS 3 Yrotation Xrotation Zrotation
       JOINT RightElbow
       {
        OFFSET -30.053852 0.000000 0.000000
        CHANNELS 3 Yrotation Xrotation Zrotation
        JOINT RightWrist
        {
         OFFSET -24.564923 0.000000 -0.000000
         CHANNELS 3 Yrotation Xrotation Zrotation
         End Site
         {
          OFFSET -18.334355 0.000000 0.000000
         }
        }
       }
      }
     }
     JOINT LeftCollar
     {
      OFFSET 3.001579 7.717577 0.000000
      CHANNELS 3 Yrotation Xrotation Zrotation
      JOINT LeftShoulder
      {
       OFFSET 14.002642 0.000000 0.000000
       CHANNELS 3 Yrotation Xrotation Zrotation
       JOINT LeftElbow
       {
        OFFSET 30.053852 0.000000 0.000000
        CHANNELS 3 Yrotation Xrotation Zrotation
        JOINT LeftWrist
        {
         OFFSET 24.564923 0.000000 -0.000000
         CHANNELS 3 Yrotation Xrotation Zrotation
         End Site
         {
          OFFSET 18.334355 0.000000 0.000000
         }
        }
       }
      }
     }
    }
   }
  }
 }
 JOINT RightHip
 {
  OFFSET -8.003235 -0.001175 -0.000120
  CHANNELS 3 Yrotation Xrotation Zrotation
  JOINT RightKnee
  {
   OFFSET 0.000000 -41.759727 0.000113
   CHANNELS 3 Yrotation Xrotation Zrotation
   JOINT RightAnkle
   {
    OFFSET 0.000000 -40.728748 0.000159
    CHANNELS 3 Yrotation Xrotation Zrotation
    JOINT RightToe
    {
     OFFSET 0.000000 -6.515296 14.732841
     CHANNELS 3 Yrotation Xrotation Zrotation
     End Site
     {
      OFFSET 0.000000 -1.502839 6.412115
     }
    }
   }
  }
 }
 JOINT LeftHip
 {
  OFFSET 8.003235 -0.001175 -0.000120
  CHANNELS 3 Yrotation Xrotation Zrotation
  JOINT LeftKnee
  {
   OFFSET 0.000000 -41.759727 0.000113
   CHANNELS 3 Yrotation Xrotation Zrotation
   JOINT LeftAnkle
   {
    OFFSET 0.000000 -40.728748 0.000159
    CHANNELS 3 Yrotation Xrotation Zrotation
    JOINT LeftToe
    {
     OFFSET 0.000000 -6.515296 14.732841
     CHANNELS 3 Yrotation Xrotation Zrotation
     End Site
     {
      OFFSET 0.000000 -1.502839 6.412115
     }
    }
   }
  }
 }
}
MOTION
Frames: 9
Frame Time: 0.016667
5.088269 90.425827 6.842630 -30.515227 78.543620 -2.822296 0.779106 -7.731901 -1.441623 0.378998 -3.363805 -0.721626 0.378998 -3.363805 -0.721626 0.280191 -2.523306 -0.538976 11.583903 42.580079 7.836630 20.946231 42.300969 14.192623 59.353025 66.552436 53.696550 75.036119 15.438368 -20.511609 9.643554 -11.145305 -12.690902 1.479413 -1.812240 -11.619194 -53.901014 69.417246 -43.348019 -47.632839 16.941596 27.097178 -25.390188 -8.206462 8.416627 6.479484 1.371479 8.784272 -90.341750 -80.398436 94.918397 0.027662 12.327806 -4.210143 2.231036 0.263332 -1.647222 0.096223 0.053135 -0.129374 -26.253495 -74.700172 28.326334 5.575165 0.326490 -0.323235 2.196292 -2.953016 -2.659312 -0.065864 0.214520 0.006323
5.096950 90.431441 6.820731 -30.533186 78.140268 -2.863778 0.647498 -7.609244 -1.343084 0.328843 -3.324182 -0.694054 0.328843 -3.324182 -0.694054 0.242785 -2.493514 -0.518604 11.642326 42.721729 7.744396 21.088147 42.568842 14.068170 58.772386 66.389056 52.900472 75.342140 15.119623 -20.073125 9.425269 -10.863024 -12.455948 1.449125 -1.791309 -11.547261 -52.183249 68.694709 -41.947121 -48.221947 17.032217 26.169162 -25.146608 -8.103367 8.293551 6.484344 1.492211 8.709859 -87.971466 -80.323087 92.495027 -0.086450 12.310708 -4.155061 2.363670 0.287194 -1.666651 0.080774 0.077612 -0.118096 -26.679788 -74.346679 28.809573 5.582232 0.590364 -0.475438 2.349103 -3.032922 -2.597726 -0.053230 0.174401 0.008609
5.111800 90.438228 6.801032 -30.384602 77.928557 -2.746649 0.520083 -7.484973 -1.259777 0.285237 -3.290197 -0.677808 0.285237 -3.290197 -0.677808 0.210216 -2.467968 -0.506679 11.707263 42.829027 7.677487 21.233171 42.770964 13.979792 58.520989 66.263703 52.467852 75.676591 14.662716 -19.894401 9.054179 -10.426217 -12.181604 1.406610 -1.754092 -11.438215 -50.562794 68.068596 -40.549502 -48.748659 17.068974 25.423416 -24.893396 -7.926932 8.194308 6.507445 1.618294 8.729568 -86.890196 -80.256768 91.359767 -0.093911 12.327948 -4.145157 2.382904 0.290600 -1.646862 0.060900 0.106476 -0.107732 -27.496715 -74.128785 29.590485 5.813329 0.800930 -0.525623 2.322742 -3.086992 -2.578902 -0.049822 0.142909 0.009587
5.140434 90.444608 6.787764 -30.314572 77.911353 -2.659543 0.431457 -7.373832 -1.230535 0.247481 -3.259549 -0.672376 0.247481 -3.259549 -0.672376 0.181972 -2.444938 -0.502825 11.774899 42.903052 7.624200 21.374745 42.910614 13.906608 58.568962 66.121263 52.359274 75.909470 14.281071 -19.902598 8.604197 -10.028279 -12.029222 1.354379 -1.715213 -11.343479 -49.333213 67.689464 -39.491689 -49.088016 16.994257 25.121085 -24.677455 -7.746757 8.088850 6.556423 1.766069 8.751431 -87.024982 -80.259798 91.483780 -0.051209 12.371459 -4.166381 2.298940 0.304051 -1.618834 0.064551 0.111170 -0.087082 -27.907613 -74.135189 29.957159 5.992982 0.913646 -0.522864 2.205401 -3.085435 -2.568172 -0.051109 0.104375 0.006970
5.156286 90.449681 6.775297 -30.339497 78.104571 -2.660263 0.375750 -7.294371 -1.209883 0.224512 -3.239729 -0.673390 0.224512 -3.239729 -0.673390 0.164766 -2.430048 -0.503717 11.833612 42.949323 7.580853 21.493164 42.998613 13.843273 58.789126 65.987858 52.474846 75.854457 14.199763 -20.142793 8.252068 -9.988562 -12.048966 1.301213 -1.671851 -11.304994 -48.867197 67.631798 -39.154606 -49.126017 16.772996 25.443225 -24.498572 -7.592050 7.977947 6.615334 1.859732 8.736077 -88.295270 -80.215133 92.776238 -0.021324 12.397865 -4.198694 2.309764 0.313277 -1.607822 0.082372 0.115857 -0.062275 -28.458085 -74.329381 30.514706 6.056596 0.991203 -0.546927 2.209959 -3.087605 -2.558446 -0.047712 0.082069 0.006418
5.170589 90.456768 6.769004 -30.438077 78.495346 -2.725877 0.352233 -7.261819 -1.193217 0.213394 -3.237137 -0.673759 0.213394 -3.237137 -0.673759 0.156431 -2.428092 -0.504054 11.872154 42.985645 7.538500 21.572575 43.068873 13.778668 59.231018 65.962223 52.848932 75.587265 14.219230 -20.682354 8.060135 -10.170723 -12.177853 1.228777 -1.620615 -11.299057 -48.881897 67.812823 -39.270329 -48.944871 16.535553 26.194151 -24.395180 -7.587137 7.956935 6.682540 1.885239 8.712478 -90.443304 -80.074516 94.966518 0.011774 12.357988 -4.228130 2.384635 0.339467 -1.618860 0.104481 0.123577 -0.036167 -29.196814 -74.708055 31.261771 6.007315 1.048693 -0.542350 2.267221 -3.084848 -2.551963 -0.054342 0.059430 0.001358
5.174332 90.464804 6.764798 -30.502706 79.064380 -2.783630 0.332735 -7.278451 -1.152638 0.201773 -3.255033 -0.672207 0.201773 -3.255033 -0.672207 0.147706 -2.441500 -0.502944 11.897641 43.023668 7.496808 21.628784 43.142581 13.715625 60.094392 66.066497 53.618962 75.159734 14.257567 -21.485250 7.999454 -10.472690 -12.414792 1.162160 -1.574942 -11.340245 -48.987732 68.054103 -39.474031 -48.618685 16.395661 27.116671 -24.392288 -7.755819 8.017923 6.795084 1.909241 8.758513 -93.248922 -79.819077 97.833554 0.076330 12.254486 -4.275851 2.455378 0.369678 -1.645569 0.151857 0.141972 -0.001409 -30.538422 -75.210114 32.597126 5.984048 1.118769 -0.511239 2.301059 -3.083945 -2.556981 -0.066223 0.030006 -0.007558
5.173148 90.472679 6.764475 -30.532529 79.812077 -2.817236 0.324163 -7.325619 -1.108473 0.196155 -3.289056 -0.671436 0.196155 -3.289056 -0.671436 0.143459 -2.467011 -0.502382 11.908819 43.058493 7.471422 21.658113 43.209011 13.680634 61.173256 66.227509 54.597282 74.624114 14.292495 -22.422202 8.038426 -10.791411 -12.793097 1.116762 -1.522115 -11.450032 -49.203606 68.366254 -39.741488 -48.107216 16.335939 28.223846 -24.460910 -8.056327 8.177281 6.947170 1.999681 8.855552 -96.744378 -79.476430 101.405256 0.219031 12.138361 -4.333161 2.455822 0.386402 -1.653513 0.177778 0.167391 0.020333 -32.349611 -75.833847 34.407534 6.019911 1.156329 -0.490714 2.308225 -3.060464 -2.553922 -0.077979 -0.005412 -0.020620
5.170361 90.477507 6.772580 -30.400531 80.693371 -2.717632 0.281337 -7.369939 -1.035046 0.182140 -3.329930 -0.667695 0.182140 -3.329930 -0.667695 0.132925 -2.497650 -0.499637 11.919174 43.092976 7.445161 21.685882 43.274942 13.643994 62.427390 66.400151 55.668934 73.957338 14.273430 -23.518070 8.165387 -11.054360 -13.171863 1.082369 -1.453628 -11.665974 -49.739652 68.900105 -40.335227 -47.437381 16.154791 29.670462 -24.496941 -8.228952 8.349150 7.111017 2.061664 9.011042 -100.685957 -79.039101 105.393047 0.447946 12.042283 -4.384293 2.433755 0.371172 -1.631197 0.177013 0.208525 0.030823 -34.802662 -76.530457 36.797157 6.093781 1.193049 -0.393078 2.332629 -3.033768 -2.582714 -0.091027 -0.042083 -0.037694
